<svg width="199" height="45" viewBox="0 0 199 45" fill="none" xmlns="http://www.w3.org/2000/svg">
<path d="M35.5845 20.4353H31.0044V21.4923H35.5845V20.4353Z" fill="#1A4D8F"/>
<path d="M23.7016 10.498L19.5542 8.10352L19.0257 9.01886L23.1731 11.4134L23.7016 10.498Z" fill="#1A4D8F"/>
<path d="M4.58061 18.8496H0.000488281V19.9066H4.58061V18.8496Z" fill="#1A4D8F"/>
<path d="M35.5845 25.0154V20.4353H34.5275V25.0154H35.5845Z" fill="#1A4D8F"/>
<path d="M35.5845 31.8856V28.8909H34.5275V31.8856H35.5845Z" fill="#1A4D8F"/>
<path d="M14.656 38.1419L17.0151 34.0557L16.0998 33.5272L13.7406 37.6134L14.656 38.1419Z" fill="#1A4D8F"/>
<path d="M32.0615 18.8492V15.1499H31.0046V18.8492H32.0615Z" fill="#1A4D8F"/>
<path d="M35.5845 18.8494V13.3884H34.5275V18.8494H35.5845Z" fill="#1A4D8F"/>
<path d="M38.9316 33.6471V11.2749H37.8747V33.6471H38.9316Z" fill="#1A4D8F"/>
<path d="M32.0194 15.2029L27.6567 12.6841L27.1283 13.5994L31.4909 16.1182L32.0194 15.2029Z" fill="#1A4D8F"/>
<path d="M20.1912 36.1163L17.4399 34.5278L16.9115 35.4432L19.6627 37.0316L20.1912 36.1163Z" fill="#1A4D8F"/>
<path d="M4.75635 14.9742V13.2126H3.6994V14.9742H4.75635Z" fill="#1A4D8F"/>
<path d="M20.0078 40.1984L15.6787 37.699L15.1502 38.6143L19.4793 41.1137L20.0078 40.1984Z" fill="#1A4D8F"/>
<path d="M19.9944 44.0804L13.2124 40.1648L12.6839 41.0801L19.466 44.9958L19.9944 44.0804Z" fill="#1A4D8F"/>
<path d="M35.0472 30.9482L18.9829 40.2229L19.5114 41.1382L35.5756 31.8635L35.0472 30.9482Z" fill="#1A4D8F"/>
<path d="M38.4371 32.7655L18.9961 43.9897L19.5246 44.9051L38.9656 33.6808L38.4371 32.7655Z" fill="#1A4D8F"/>
<path d="M16.9027 33.9972L7.73389 28.7036L7.20541 29.619L16.3742 34.9126L16.9027 33.9972Z" fill="#1A4D8F"/>
<path d="M15.0955 37.3802L4.05225 31.0044L3.52377 31.9197L14.567 38.2956L15.0955 37.3802Z" fill="#1A4D8F"/>
<path d="M9.16794 37.9299L0.528809 32.9421L0.000332355 33.8575L8.63946 38.8453L9.16794 37.9299Z" fill="#1A4D8F"/>
<path d="M32.0615 29.7712V21.4917H31.0046V29.7712H32.0615Z" fill="#1A4D8F"/>
<path d="M19.7666 36.9151L32.0801 29.8059L31.5516 28.8906L19.2381 35.9997L19.7666 36.9151Z" fill="#1A4D8F"/>
<path d="M8.28027 29.5949V15.1499H7.22332L7.22332 29.5949H8.28027Z" fill="#1A4D8F"/>
<path d="M4.58057 31.8854L4.58057 18.8496H3.52361L3.52361 31.8854H4.58057Z" fill="#1A4D8F"/>
<path d="M1.05713 33.8231L1.05713 18.8496H0.00017643L0.00017643 33.8231H1.05713Z" fill="#1A4D8F"/>
<path d="M1.2334 18.1451L1.2334 11.2749H0.176447L0.176447 18.1451H1.2334Z" fill="#1A4D8F"/>
<path d="M7.75195 16.128L20.0654 9.0188L19.537 8.10345L7.22348 15.2126L7.75195 16.128Z" fill="#1A4D8F"/>
<path d="M4.22303 14.1189L20.0894 4.9585L19.5609 4.04315L3.69455 13.2036L4.22303 14.1189Z" fill="#1A4D8F"/>
<path d="M12.4072 5.44951L20.166 0.969971L19.6375 0.0546234L11.8787 4.53416L12.4072 5.44951Z" fill="#1A4D8F"/>
<path d="M0.680698 12.1466L8.53906 7.60962L8.01059 6.69427L0.152222 11.2313L0.680698 12.1466Z" fill="#1A4D8F"/>
<path d="M19.0261 0.915361L38.4536 12.1318L38.9821 11.2165L19.5546 1.45515e-05L19.0261 0.915361Z" fill="#1A4D8F"/>
<path d="M19.0257 4.96712L35.0859 14.2395L35.6144 13.3242L19.5542 4.05177L19.0257 4.96712Z" fill="#1A4D8F"/>
<path d="M12.5078 39.2841C12.5078 40.3541 11.6403 41.2217 10.5701 41.2217C9.49988 41.2217 8.63232 40.3541 8.63232 39.2841C8.63232 38.2138 9.49988 37.3462 10.5701 37.3462C11.6403 37.3462 12.5078 38.2138 12.5078 39.2841ZM9.66712 39.2841C9.66712 39.7828 10.0714 40.187 10.5701 40.187C11.0688 40.187 11.473 39.7828 11.473 39.2841C11.473 38.7851 11.0688 38.3809 10.5701 38.3809C10.0714 38.3809 9.66712 38.7851 9.66712 39.2841Z" fill="#1A4D8F"/>
<path d="M36.994 27.6572C36.994 28.7274 36.1264 29.595 35.0564 29.595C33.986 29.595 33.1187 28.7274 33.1187 27.6572C33.1187 26.587 33.986 25.7195 35.0564 25.7195C36.1264 25.7195 36.994 26.587 36.994 27.6572ZM34.1535 27.6572C34.1535 28.1559 34.5577 28.5602 35.0564 28.5602C35.5551 28.5602 35.9593 28.1559 35.9593 27.6572C35.9593 27.1585 35.5551 26.7543 35.0564 26.7543C34.5577 26.7543 34.1535 27.1585 34.1535 27.6572Z" fill="#1A4D8F"/>
<path d="M27.834 12.1555C27.834 13.2257 26.9664 14.0933 25.8962 14.0933C24.8261 14.0933 23.9585 13.2257 23.9585 12.1555C23.9585 11.0853 24.8261 10.2178 25.8962 10.2178C26.9664 10.2178 27.834 11.0853 27.834 12.1555ZM24.9933 12.1555C24.9933 12.6542 25.3975 13.0585 25.8962 13.0585C26.3949 13.0585 26.7992 12.6542 26.7992 12.1555C26.7992 11.6568 26.3949 11.2526 25.8962 11.2526C25.3975 11.2526 24.9933 11.6568 24.9933 12.1555Z" fill="#1A4D8F"/>
<path d="M12.5078 5.81422C12.5078 6.88441 11.6403 7.75197 10.5701 7.75197C9.49988 7.75197 8.63232 6.88441 8.63232 5.81422C8.63232 4.74403 9.49988 3.87646 10.5701 3.87646C11.6403 3.87646 12.5078 4.74403 12.5078 5.81422ZM9.66712 5.81422C9.66712 6.3129 10.0714 6.71716 10.5701 6.71716C11.0688 6.71716 11.473 6.3129 11.473 5.81422C11.473 5.31553 11.0688 4.91127 10.5701 4.91127C10.0714 4.91127 9.66712 5.31553 9.66712 5.81422Z" fill="#1A4D8F"/>
<path d="M5.99025 16.3833C5.99025 17.4535 5.12269 18.3211 4.0525 18.3211C2.98231 18.3211 2.11475 17.4535 2.11475 16.3833C2.11475 15.3131 2.98231 14.4456 4.0525 14.4456C5.12269 14.4456 5.99025 15.3131 5.99025 16.3833ZM3.14953 16.3833C3.14953 16.882 3.55381 17.2863 4.0525 17.2863C4.55119 17.2863 4.95545 16.882 4.95545 16.3833C4.95545 15.8846 4.55119 15.4803 4.0525 15.4803C3.55381 15.4803 3.14953 15.8846 3.14953 16.3833Z" fill="#1A4D8F"/>
<path d="M80.816 30.416H77.5555V29.6329C77.5555 29.4426 77.5789 29.1577 77.6258 28.8258C76.8803 29.9178 75.7165 30.7019 74.1795 30.7019C71.8277 30.7019 70.0581 28.8258 70.0581 25.7153V18.8296H73.3412V25.5259C73.3412 27.14 74.3427 27.9719 75.4371 27.9719C76.4151 27.9719 77.4861 27.1887 77.5564 25.6215V18.8305H80.8169V30.416H80.816Z" fill="#1A4D8F"/>
<path d="M92.3281 30.416C90.9309 30.416 89.9763 29.6559 89.4642 28.4453C88.8125 29.5612 87.4387 30.6541 85.4122 30.6541C82.8972 30.6541 81.6162 28.9922 81.6162 27.2586C81.6162 25.3357 83.1532 23.4596 86.32 23.4596C87.2746 23.4596 88.2058 23.5782 89.0676 23.7445V23.3649C89.0676 22.2251 88.2996 21.4649 87.042 21.4649C86.1568 21.4649 85.4357 21.8685 84.9696 22.6286L82.688 20.895C82.688 20.895 83.9924 18.5208 87.2052 18.5208C90.372 18.5208 92.3047 20.4437 92.3047 23.2224V26.7126C92.3047 27.14 92.5842 27.4011 93.0033 27.4011H95.1172V30.417H92.3281V30.416ZM89.0676 25.81C88.4618 25.6914 87.7172 25.5728 87.2746 25.5728C85.9477 25.5728 84.9227 26.0241 84.9227 26.9737C84.9227 27.6153 85.3888 28.0427 86.2497 28.0427C87.6244 28.0418 88.6493 27.0683 89.0676 25.81Z" fill="#1A4D8F"/>
<path d="M97.0634 30.416H93.8037V18.8286H97.0634V19.6118C97.0634 19.802 97.0399 20.087 96.9939 20.4188C97.7394 19.3268 98.8798 18.5427 100.44 18.5427C102.792 18.5427 104.562 20.4188 104.562 23.5285V30.4141H101.279V23.7178C101.279 22.1037 100.277 21.2718 99.1827 21.2718C98.2046 21.2718 97.1102 22.0789 97.0634 23.6222V30.416Z" fill="#1A4D8F"/>
<path d="M106.805 18.8288V14.697H110.065V18.8288H111.671V21.9155H110.065V30.4162H106.805V21.9155H105.221V18.8288H106.805Z" fill="#1A4D8F"/>
<path d="M123.227 30.416H119.967V29.6329C119.967 29.4426 119.99 29.1577 120.037 28.8258C119.291 29.9178 118.128 30.7019 116.591 30.7019C114.239 30.7019 112.469 28.8258 112.469 25.7153V18.8296H115.752V25.5259C115.752 27.14 116.754 27.9719 117.848 27.9719C118.826 27.9719 119.897 27.1887 119.967 25.6215V18.8305H123.228V30.416H123.227Z" fill="#1A4D8F"/>
<path d="M124.354 30.4163V18.8289H127.615V19.4227C127.615 19.6369 127.568 20.0165 127.522 20.3722C128.197 19.2563 129.291 18.5439 130.642 18.5439C132.295 18.5439 133.296 19.3271 133.832 20.4439C134.647 19.328 135.904 18.5439 137.441 18.5439C139.77 18.5439 141.19 20.1581 141.19 22.9368V30.4163H137.93V23.1739C137.93 21.9156 137.045 21.274 136.16 21.274C135.275 21.274 134.391 21.9156 134.391 23.2686V30.4154H131.131V23.1022C131.131 21.9146 130.316 21.3447 129.454 21.3447C128.569 21.3447 127.661 21.9624 127.615 23.1491V30.4154H124.354V30.4163Z" fill="#1A4D8F"/>
<path d="M48.6963 22.5838C48.6963 17.2744 52.9517 12.9092 58.2108 12.9092C63.4177 12.9092 67.6997 17.2755 67.6997 22.5849C67.6997 24.9564 66.8801 27.1129 65.506 28.7832L67.0653 30.3733L64.9504 32.5027L63.2591 30.7781C61.7786 31.7212 60.0607 32.2877 58.2108 32.2877C52.9517 32.2856 48.6963 27.9475 48.6963 22.5838ZM60.6429 28.1353L59.0569 26.4911L61.1718 24.3617L62.8632 26.0863C63.4443 25.116 63.7881 23.9297 63.7881 22.5828C63.7881 19.0251 61.4092 16.5191 58.2118 16.5191C54.9868 16.5191 52.6089 19.0522 52.6089 22.5828C52.6089 26.1676 54.9878 28.6737 58.2118 28.6737C59.0835 28.6747 59.9287 28.4859 60.6429 28.1353Z" fill="#1A4D8F"/>
<path d="M151.55 14.3071V31.0735H147.508V14.3071H151.55ZM158.067 21.2854V24.3946H150.398V21.2854H158.067ZM158.724 14.3071V17.4278H150.398V14.3071H158.724ZM165.122 27.9413V22.8054C165.122 22.4523 165.072 22.1491 164.972 21.8957C164.872 21.6424 164.715 21.4466 164.5 21.3084C164.285 21.1626 163.997 21.0896 163.636 21.0896C163.344 21.0896 163.095 21.1395 162.888 21.2393C162.68 21.3391 162.523 21.4888 162.416 21.6884C162.308 21.888 162.254 22.1414 162.254 22.4485H158.374C158.374 21.8727 158.5 21.3391 158.754 20.8478C159.015 20.3488 159.383 19.9151 159.859 19.5466C160.343 19.1781 160.919 18.894 161.586 18.6944C162.262 18.4872 163.014 18.3835 163.843 18.3835C164.834 18.3835 165.717 18.5486 166.492 18.8787C167.275 19.2088 167.893 19.704 168.346 20.3642C168.799 21.0167 169.025 21.8381 169.025 22.8285V27.9298C169.025 28.7435 169.071 29.3615 169.164 29.7838C169.256 30.1983 169.386 30.563 169.555 30.8777V31.0735H165.663C165.479 30.6896 165.34 30.2213 165.248 29.6686C165.164 29.1082 165.122 28.5324 165.122 27.9413ZM165.594 23.4618L165.617 25.5346H163.901C163.54 25.5346 163.233 25.5845 162.98 25.6843C162.734 25.7841 162.534 25.9223 162.381 26.0988C162.235 26.2677 162.128 26.4597 162.059 26.6746C161.997 26.8896 161.966 27.116 161.966 27.354C161.966 27.5843 162.02 27.7916 162.128 27.9758C162.243 28.1524 162.396 28.2906 162.588 28.3904C162.78 28.4902 162.995 28.5401 163.233 28.5401C163.663 28.5401 164.028 28.4595 164.327 28.2983C164.634 28.1294 164.868 27.9259 165.029 27.688C165.191 27.45 165.271 27.2273 165.271 27.0201L166.123 28.6092C165.97 28.9163 165.793 29.2272 165.594 29.5419C165.402 29.8567 165.16 30.1484 164.868 30.4171C164.584 30.6781 164.235 30.8931 163.82 31.062C163.406 31.2232 162.903 31.3038 162.312 31.3038C161.544 31.3038 160.838 31.1464 160.193 30.8317C159.556 30.5169 159.045 30.0793 158.661 29.5189C158.278 28.9508 158.086 28.2983 158.086 27.5613C158.086 26.9164 158.201 26.3407 158.431 25.834C158.669 25.3273 159.026 24.8974 159.502 24.5443C159.978 24.1911 160.585 23.9224 161.322 23.7382C162.059 23.5539 162.926 23.4618 163.924 23.4618H165.594ZM175.262 28.3098C175.623 28.3098 175.93 28.2445 176.183 28.114C176.444 27.9758 176.64 27.7839 176.771 27.5383C176.909 27.2849 176.974 26.9817 176.966 26.6285H180.617C180.624 27.5651 180.394 28.3866 179.926 29.0928C179.465 29.7914 178.836 30.3365 178.037 30.728C177.247 31.1119 176.352 31.3038 175.354 31.3038C174.379 31.3038 173.527 31.1464 172.798 30.8317C172.068 30.5092 171.458 30.064 170.967 29.4959C170.483 28.9201 170.119 28.2484 169.873 27.4807C169.635 26.713 169.516 25.88 169.516 24.9818V24.717C169.516 23.8188 169.635 22.9858 169.873 22.2182C170.119 21.4428 170.483 20.7711 170.967 20.203C171.458 19.6272 172.065 19.1819 172.786 18.8672C173.516 18.5447 174.364 18.3835 175.331 18.3835C176.368 18.3835 177.281 18.5793 178.072 18.9708C178.87 19.3623 179.496 19.9304 179.949 20.6751C180.402 21.4198 180.624 22.3218 180.617 23.3812H176.966C176.974 23.005 176.916 22.6673 176.794 22.3679C176.671 22.0685 176.479 21.8305 176.218 21.6539C175.965 21.4697 175.638 21.3775 175.239 21.3775C174.84 21.3775 174.517 21.4658 174.272 21.6424C174.026 21.819 173.838 22.0646 173.707 22.3794C173.585 22.6864 173.5 23.0396 173.454 23.4388C173.416 23.838 173.397 24.2641 173.397 24.717V24.9818C173.397 25.4425 173.416 25.8762 173.454 26.2831C173.5 26.6823 173.588 27.0354 173.719 27.3425C173.85 27.6419 174.038 27.8799 174.283 28.0565C174.529 28.2253 174.855 28.3098 175.262 28.3098ZM185.195 18.6138V31.0735H181.303V18.6138H185.195ZM181.073 15.4011C181.073 14.8483 181.272 14.3954 181.672 14.0422C182.071 13.6891 182.589 13.5125 183.226 13.5125C183.863 13.5125 184.381 13.6891 184.781 14.0422C185.18 14.3954 185.379 14.8483 185.379 15.4011C185.379 15.9538 185.18 16.4067 184.781 16.7599C184.381 17.113 183.863 17.2896 183.226 17.2896C182.589 17.2896 182.071 17.113 181.672 16.7599C181.272 16.4067 181.073 15.9538 181.073 15.4011ZM185.928 24.9703V24.7285C185.928 23.815 186.058 22.9743 186.319 22.2066C186.58 21.4313 186.964 20.7595 187.471 20.1914C187.977 19.6234 188.603 19.1819 189.348 18.8672C190.092 18.5447 190.952 18.3835 191.927 18.3835C192.91 18.3835 193.773 18.5447 194.518 18.8672C195.27 19.1819 195.9 19.6234 196.407 20.1914C196.913 20.7595 197.297 21.4313 197.558 22.2066C197.819 22.9743 197.95 23.815 197.95 24.7285V24.9703C197.95 25.8762 197.819 26.7168 197.558 27.4922C197.297 28.2599 196.913 28.9316 196.407 29.5074C195.9 30.0755 195.274 30.5169 194.53 30.8317C193.785 31.1464 192.925 31.3038 191.95 31.3038C190.975 31.3038 190.112 31.1464 189.359 30.8317C188.607 30.5169 187.977 30.0755 187.471 29.5074C186.964 28.9316 186.58 28.2599 186.319 27.4922C186.058 26.7168 185.928 25.8762 185.928 24.9703ZM189.808 24.7285V24.9703C189.808 25.4386 189.843 25.8762 189.912 26.2831C189.981 26.69 190.096 27.0469 190.257 27.354C190.419 27.6534 190.637 27.8876 190.914 28.0565C191.19 28.2253 191.536 28.3098 191.95 28.3098C192.357 28.3098 192.695 28.2253 192.964 28.0565C193.24 27.8876 193.459 27.6534 193.62 27.354C193.781 27.0469 193.896 26.69 193.965 26.2831C194.034 25.8762 194.069 25.4386 194.069 24.9703V24.7285C194.069 24.2756 194.034 23.8495 193.965 23.4503C193.896 23.0434 193.781 22.6864 193.62 22.3794C193.459 22.0646 193.24 21.819 192.964 21.6424C192.687 21.4658 192.342 21.3775 191.927 21.3775C191.52 21.3775 191.179 21.4658 190.902 21.6424C190.634 21.819 190.419 22.0646 190.257 22.3794C190.096 22.6864 189.981 23.0434 189.912 23.4503C189.843 23.8495 189.808 24.2756 189.808 24.7285Z" fill="#1A4D8F"/>
<path d="M17.5956 20.4366C17.6112 20.4224 17.4832 19.8496 17.4796 19.7789C17.4675 19.5308 17.491 19.2814 17.5477 19.0397C17.6566 18.5781 17.9191 18.2117 18.3332 17.9704C18.235 17.979 18.1734 17.8474 18.2097 17.7558C18.2458 17.6639 18.3382 17.6083 18.4269 17.5638C19.3808 17.0807 20.5977 17.0459 21.4863 17.6416C22.3372 18.2121 22.7619 19.4088 22.3468 20.335C22.3219 20.3907 22.3434 20.4577 22.3982 20.4834C22.5861 20.5689 22.6914 20.8183 22.6441 21.0288C22.5956 21.2441 22.433 21.4133 22.2452 21.5341C22.245 21.5343 22.2448 21.5343 22.2448 21.5345C22.2044 21.5607 22.1589 21.5779 22.1108 21.5779H17.8941C17.8536 21.5779 17.8121 21.5693 17.7782 21.5472C17.7715 21.5431 17.7646 21.539 17.7571 21.5353C17.5784 21.4486 17.4396 21.2799 17.3941 21.0864C17.3391 20.8548 17.4192 20.5964 17.5956 20.4366Z" fill="#27DEBF"/>
<path d="M24.0852 27.1689C24.0917 27.3305 23.9606 27.4639 23.7993 27.4639H16.2068C16.0418 27.4639 15.9114 27.3245 15.9209 27.1593C15.9336 26.9571 15.9563 26.7563 15.9963 26.5578C16.0985 26.056 16.3234 25.5633 16.7116 25.2295C17.2061 24.8039 17.8973 24.6856 18.4728 24.4042C18.6796 24.3032 18.8457 24.1269 18.9069 23.9043C19.0025 23.5581 18.7974 23.3143 18.574 23.084H21.4508C21.2517 23.2668 21.0412 23.4461 21.123 23.8171C21.1576 23.9737 21.2397 24.1174 21.3546 24.2291C21.6392 24.5066 22.0302 24.5981 22.3938 24.7326C22.9096 24.9236 23.4034 25.2265 23.7031 25.6876C23.9529 26.0728 24.0438 26.5256 24.0755 26.9889C24.0798 27.0489 24.0826 27.1086 24.0852 27.1689Z" fill="#27DEBF"/>
<mask id="mask0_197_3333" style="mask-type:luminance" maskUnits="userSpaceOnUse" x="13" y="15" width="14" height="14">
<path d="M13.4048 15.7134H26.5612V28.8698H13.4048V15.7134Z" fill="white"/>
</mask>
<g mask="url(#mask0_197_3333)">
<path d="M14.449 28.1605C14.2642 28.1605 14.1141 28.0103 14.1141 27.8254V25.3642H13.4048V27.8254C13.4048 28.4013 13.8731 28.8698 14.449 28.8698H16.9104V28.1605H14.449ZM25.8519 25.3642V27.8254C25.8519 28.0103 25.7017 28.1605 25.517 28.1605H23.0556V28.8698H25.517C26.0931 28.8698 26.5612 28.4013 26.5612 27.8254V25.3642H25.8519ZM25.517 15.7134H23.0556V16.4225H25.517C25.7017 16.4225 25.8519 16.5728 25.8519 16.7575V19.219H26.5612V16.7575C26.5612 16.1814 26.0931 15.7134 25.517 15.7134ZM14.449 15.7134C13.8731 15.7134 13.4048 16.1814 13.4048 16.7575V19.219H14.1141V16.7575C14.1141 16.5728 14.2642 16.4225 14.449 16.4225H16.9104V15.7134H14.449Z" fill="#455FB5"/>
</g>
<mask id="mask1_197_3333" style="mask-type:luminance" maskUnits="userSpaceOnUse" x="13" y="21" width="14" height="2">
<path d="M13.4048 21.885H26.5612V22.7099H13.4048V21.885Z" fill="white"/>
</mask>
<g mask="url(#mask1_197_3333)">
<path d="M26.5612 21.8975V22.6856H13.4048V21.8975H26.5612Z" fill="#455FB5"/>
</g>
</svg>
