<svg width="375" height="88" viewBox="0 0 375 88" fill="none" xmlns="http://www.w3.org/2000/svg">
<path d="M69.5899 39.9634H60.6328V42.0304H69.5899V39.9634Z" fill="white"/>
<path d="M46.3507 20.5305L38.2397 15.8477L37.2062 17.6378L45.3171 22.3206L46.3507 20.5305Z" fill="white"/>
<path d="M8.95713 36.8628H0V38.9298H8.95713V36.8628Z" fill="white"/>
<path d="M69.5898 48.9205V39.9634H67.5228V48.9205H69.5898Z" fill="white"/>
<path d="M69.5898 62.3571V56.5005H67.5228V62.3571H69.5898Z" fill="white"/>
<path d="M28.6612 74.5918L33.2749 66.6006L31.4848 65.5671L26.8711 73.5583L28.6612 74.5918Z" fill="white"/>
<path d="M62.7002 36.862V29.6274H60.6332V36.862H62.7002Z" fill="white"/>
<path d="M69.5898 36.8623V26.1826H67.5228V36.8623H69.5898Z" fill="white"/>
<path d="M76.1357 65.801V22.0488H74.0687V65.801H76.1357Z" fill="white"/>
<path d="M62.6188 29.7311L54.0869 24.8052L53.0534 26.5953L61.5853 31.5212L62.6188 29.7311Z" fill="white"/>
<path d="M39.486 70.6299L34.1055 67.5234L33.072 69.3135L38.4525 72.42L39.486 70.6299Z" fill="white"/>
<path d="M9.30078 29.2834V25.8384H7.23375V29.2834H9.30078Z" fill="white"/>
<path d="M39.1263 78.613L30.6602 73.7251L29.6266 75.5152L38.0928 80.4031L39.1263 78.613Z" fill="white"/>
<path d="M39.1012 86.2054L25.8379 78.5479L24.8044 80.338L38.0677 87.9955L39.1012 86.2054Z" fill="white"/>
<path d="M68.5387 60.523L37.1226 78.6611L38.1561 80.4512L69.5722 62.3131L68.5387 60.523Z" fill="white"/>
<path d="M75.1683 64.0775L37.1484 86.0283L38.182 87.8184L76.2018 65.8676L75.1683 64.0775Z" fill="white"/>
<path d="M33.055 66.4872L15.124 56.1348L14.0905 57.9249L32.0215 68.2773L33.055 66.4872Z" fill="white"/>
<path d="M29.5211 73.1027L7.92432 60.6338L6.8908 62.4239L28.4876 74.8928L29.5211 73.1027Z" fill="white"/>
<path d="M17.9288 74.1773L1.03369 64.4229L0.000175238 66.213L16.8953 75.9674L17.9288 74.1773Z" fill="white"/>
<path d="M62.7002 58.2216V42.0298H60.6332V58.2216H62.7002Z" fill="white"/>
<path d="M38.6554 72.1927L62.7363 58.2896L61.7028 56.4994L37.6219 70.4026L38.6554 72.1927Z" fill="white"/>
<path d="M16.1919 57.8769V29.6274H14.1249L14.1249 57.8769H16.1919Z" fill="white"/>
<path d="M8.95703 62.3562L8.95703 36.8628H6.89L6.89 62.3562H8.95703Z" fill="white"/>
<path d="M2.06689 66.1458L2.06689 36.8628H-0.000137806L-0.000137806 66.1458H2.06689Z" fill="white"/>
<path d="M2.41113 35.4846L2.41113 22.0488H0.344102L0.344102 35.4846H2.41113Z" fill="white"/>
<path d="M15.1589 31.5403L39.2397 17.6372L38.2062 15.8471L14.1253 29.7502L15.1589 31.5403Z" fill="white"/>
<path d="M8.25759 27.6119L39.2866 9.69727L38.2531 7.90716L7.22407 25.8218L8.25759 27.6119Z" fill="white"/>
<path d="M24.263 10.6569L39.4365 1.89648L38.403 0.106383L23.2295 8.86681L24.263 10.6569Z" fill="white"/>
<path d="M1.3305 23.7542L16.6987 14.8813L15.6652 13.0912L0.296981 21.9641L1.3305 23.7542Z" fill="white"/>
<path d="M37.2067 1.79005L75.2002 23.7256L76.2337 21.9355L38.2403 -4.84166e-05L37.2067 1.79005Z" fill="white"/>
<path d="M37.2065 9.71409L68.6147 27.8477L69.6483 26.0576L38.24 7.92398L37.2065 9.71409Z" fill="white"/>
<path d="M24.4595 76.826C24.4595 78.9186 22.7629 80.6153 20.6699 80.6153C18.577 80.6153 16.8804 78.9186 16.8804 76.826C16.8804 74.7328 18.577 73.0361 20.6699 73.0361C22.7629 73.0361 24.4595 74.7328 24.4595 76.826ZM18.9041 76.826C18.9041 77.8012 19.6947 78.5918 20.6699 78.5918C21.6452 78.5918 22.4358 77.8012 22.4358 76.826C22.4358 75.8502 21.6452 75.0596 20.6699 75.0596C19.6947 75.0596 18.9041 75.8502 18.9041 76.826Z" fill="white"/>
<path d="M72.3459 54.0879C72.3459 56.1808 70.6493 57.8775 68.5567 57.8775C66.4634 57.8775 64.7671 56.1808 64.7671 54.0879C64.7671 51.995 66.4634 50.2983 68.5567 50.2983C70.6493 50.2983 72.3459 51.995 72.3459 54.0879ZM66.7909 54.0879C66.7909 55.0632 67.5815 55.8538 68.5567 55.8538C69.5319 55.8538 70.3225 55.0632 70.3225 54.0879C70.3225 53.1126 69.5319 52.322 68.5567 52.322C67.5815 52.322 66.7909 53.1126 66.7909 54.0879Z" fill="white"/>
<path d="M54.4321 23.7715C54.4321 25.8644 52.7355 27.5611 50.6425 27.5611C48.5497 27.5611 46.853 25.8644 46.853 23.7715C46.853 21.6786 48.5497 19.9819 50.6425 19.9819C52.7355 19.9819 54.4321 21.6786 54.4321 23.7715ZM48.8767 23.7715C48.8767 24.7468 49.6673 25.5374 50.6425 25.5374C51.6179 25.5374 52.4085 24.7468 52.4085 23.7715C52.4085 22.7962 51.6179 22.0056 50.6425 22.0056C49.6673 22.0056 48.8767 22.7962 48.8767 23.7715Z" fill="white"/>
<path d="M24.4595 11.3696C24.4595 13.4626 22.7629 15.1592 20.6699 15.1592C18.577 15.1592 16.8804 13.4626 16.8804 11.3696C16.8804 9.27672 18.577 7.58008 20.6699 7.58008C22.7629 7.58008 24.4595 9.27672 24.4595 11.3696ZM18.9041 11.3696C18.9041 12.3449 19.6947 13.1355 20.6699 13.1355C21.6452 13.1355 22.4358 12.3449 22.4358 11.3696C22.4358 10.3944 21.6452 9.60379 20.6699 9.60379C19.6947 9.60379 18.9041 10.3944 18.9041 11.3696Z" fill="white"/>
<path d="M11.7129 32.0396C11.7129 34.1325 10.0163 35.8291 7.92336 35.8291C5.83044 35.8291 4.13379 34.1325 4.13379 32.0396C4.13379 29.9466 5.83044 28.25 7.92336 28.25C10.0163 28.25 11.7129 29.9466 11.7129 32.0396ZM6.15747 32.0396C6.15747 33.0148 6.9481 33.8054 7.92336 33.8054C8.89863 33.8054 9.68922 33.0148 9.68922 32.0396C9.68922 31.0643 8.89863 30.2736 7.92336 30.2736C6.9481 30.2736 6.15747 31.0643 6.15747 32.0396Z" fill="white"/>
<path d="M144.357 59.4823H137.98V57.9507C137.98 57.5786 138.026 57.0214 138.118 56.3724C136.66 58.508 134.384 60.0414 131.378 60.0414C126.778 60.0414 123.318 56.3724 123.318 50.2893V36.8232H129.738V49.9189C129.738 53.0756 131.697 54.7024 133.837 54.7024C135.75 54.7024 137.844 53.1708 137.982 50.1059V36.825H144.358V59.4823H144.357Z" fill="white"/>
<path d="M166.871 59.4818C164.138 59.4818 162.271 57.9952 161.27 55.6277C159.995 57.81 157.309 59.9474 153.346 59.9474C148.427 59.9474 145.922 56.6973 145.922 53.307C145.922 49.5463 148.928 45.8774 155.121 45.8774C156.988 45.8774 158.809 46.1093 160.494 46.4347V45.6922C160.494 43.4632 158.992 41.9765 156.533 41.9765C154.802 41.9765 153.391 42.7657 152.48 44.2523L148.018 40.862C148.018 40.862 150.569 36.2188 156.852 36.2188C163.045 36.2188 166.825 39.9794 166.825 45.4136V52.2392C166.825 53.0751 167.371 53.5856 168.191 53.5856H172.325V59.4836H166.871V59.4818ZM160.494 50.4739C159.31 50.242 157.853 50.0101 156.988 50.0101C154.393 50.0101 152.388 50.8928 152.388 52.7497C152.388 54.0045 153.3 54.8404 154.983 54.8404C157.672 54.8386 159.676 52.9349 160.494 50.4739Z" fill="white"/>
<path d="M176.13 59.4817H169.755V36.8208H176.13V38.3524C176.13 38.7245 176.084 39.2817 175.994 39.9307C177.452 37.7951 179.682 36.2617 182.734 36.2617C187.333 36.2617 190.794 39.9307 190.794 46.0121V59.4781H184.374V46.3824C184.374 43.2257 182.415 41.5989 180.275 41.5989C178.362 41.5989 176.222 43.1772 176.13 46.1954V59.4817Z" fill="white"/>
<path d="M195.182 36.8216V28.7412H201.557V36.8216H204.698V42.858H201.557V59.4825H195.182V42.858H192.084V36.8216H195.182Z" fill="white"/>
<path d="M227.298 59.4823H220.922V57.9507C220.922 57.5786 220.968 57.0214 221.06 56.3724C219.602 58.508 217.326 60.0414 214.32 60.0414C209.72 60.0414 206.26 56.3724 206.26 50.2893V36.8232H212.68V49.9189C212.68 53.0756 214.639 54.7024 216.779 54.7024C218.692 54.7024 220.786 53.1708 220.924 50.1059V36.825H227.3V59.4823H227.298Z" fill="white"/>
<path d="M229.502 59.4828V36.8219H235.878V37.9832C235.878 38.402 235.787 39.1445 235.697 39.8401C237.017 37.6578 239.157 36.2646 241.798 36.2646C245.032 36.2646 246.99 37.7962 248.037 39.9804C249.631 37.798 252.09 36.2646 255.096 36.2646C259.65 36.2646 262.428 39.4213 262.428 44.8555V59.4828H256.052V45.3193C256.052 42.8583 254.32 41.6036 252.591 41.6036C250.86 41.6036 249.13 42.8584 249.13 45.5045V59.481H242.756V45.1791C242.756 42.8566 241.162 41.742 239.477 41.742C237.745 41.742 235.97 42.95 235.878 45.2708V59.481H229.502V59.4828Z" fill="white"/>
<path d="M81.543 44.1654C81.543 33.782 89.865 25.2451 100.15 25.2451C110.333 25.2451 118.707 33.784 118.707 44.1675C118.707 48.8052 117.104 53.0226 114.417 56.2893L117.466 59.3988L113.33 63.5632L110.023 60.1904C107.127 62.0349 103.768 63.1428 100.15 63.1428C89.865 63.1388 81.543 54.6549 81.543 44.1654ZM104.906 55.0222L101.805 51.8066L105.941 47.6422L109.248 51.0149C110.385 49.1174 111.057 46.7975 111.057 44.1634C111.057 37.2057 106.405 32.3048 100.152 32.3048C93.845 32.3048 89.1947 37.2588 89.1947 44.1634C89.1947 51.1741 93.847 56.075 100.152 56.075C101.857 56.0771 103.51 55.7078 104.906 55.0222Z" fill="white"/>
<path d="M282.362 27.9554V60.7446H274.457V27.9554H282.362ZM295.108 41.6026V47.683H280.11V41.6026H295.108ZM296.392 27.9554V34.0583H280.11V27.9554H296.392ZM308.904 54.6192V44.5752C308.904 43.8846 308.807 43.2916 308.611 42.7961C308.416 42.3007 308.108 41.9178 307.688 41.6476C307.268 41.3623 306.705 41.2197 305.999 41.2197C305.429 41.2197 304.941 41.3173 304.535 41.5125C304.13 41.7076 303.822 42.0004 303.612 42.3908C303.402 42.7811 303.297 43.2765 303.297 43.8771H295.707C295.707 42.7511 295.955 41.7076 296.451 40.7468C296.961 39.7709 297.682 38.9227 298.612 38.202C299.558 37.4814 300.684 36.9259 301.991 36.5355C303.312 36.1302 304.783 35.9275 306.404 35.9275C308.341 35.9275 310.068 36.2503 311.584 36.8959C313.115 37.5414 314.324 38.5098 315.21 39.8009C316.096 41.0771 316.538 42.6835 316.538 44.6202V54.5966C316.538 56.1881 316.629 57.3966 316.809 58.2224C316.989 59.0331 317.244 59.7462 317.574 60.3618V60.7446H309.963C309.602 59.994 309.332 59.0781 309.152 57.9972C308.987 56.9012 308.904 55.7752 308.904 54.6192ZM309.828 45.8588L309.873 49.9125H306.517C305.811 49.9125 305.211 50.0101 304.715 50.2052C304.235 50.4004 303.845 50.6706 303.544 51.0159C303.259 51.3462 303.049 51.7216 302.914 52.142C302.794 52.5623 302.734 53.0052 302.734 53.4706C302.734 53.921 302.839 54.3264 303.049 54.6867C303.274 55.032 303.574 55.3023 303.95 55.4974C304.325 55.6926 304.745 55.7902 305.211 55.7902C306.052 55.7902 306.765 55.6326 307.35 55.3173C307.951 54.987 308.409 54.5891 308.724 54.1237C309.039 53.6583 309.197 53.2229 309.197 52.8176L310.863 55.9253C310.563 56.5259 310.218 57.1339 309.828 57.7495C309.452 58.365 308.979 58.9355 308.409 59.461C307.853 59.9714 307.17 60.3918 306.359 60.7221C305.549 61.0374 304.565 61.195 303.409 61.195C301.908 61.195 300.527 60.8873 299.266 60.2717C298.019 59.6562 297.021 58.8004 296.27 57.7044C295.52 56.5934 295.144 55.3173 295.144 53.876C295.144 52.6149 295.37 51.4889 295.82 50.498C296.285 49.5071 296.984 48.6664 297.914 47.9757C298.845 47.2851 300.031 46.7597 301.473 46.3993C302.914 46.039 304.61 45.8588 306.562 45.8588H309.828ZM328.735 55.3398C329.441 55.3398 330.042 55.2122 330.537 54.957C331.047 54.6867 331.43 54.3114 331.686 53.831C331.956 53.3355 332.083 52.7425 332.068 52.0519H339.207C339.222 53.8835 338.772 55.4899 337.856 56.8712C336.955 58.2374 335.724 59.3033 334.163 60.069C332.616 60.8197 330.867 61.195 328.916 61.195C327.009 61.195 325.342 60.8873 323.916 60.2717C322.49 59.6411 321.296 58.7704 320.335 57.6594C319.39 56.5334 318.676 55.2197 318.196 53.7184C317.731 52.217 317.498 50.5881 317.498 48.8315V48.3135C317.498 46.557 317.731 44.928 318.196 43.4267C318.676 41.9103 319.39 40.5967 320.335 39.4857C321.296 38.3597 322.482 37.4889 323.894 36.8733C325.32 36.2428 326.979 35.9275 328.87 35.9275C330.897 35.9275 332.684 36.3103 334.23 37.076C335.792 37.8417 337.015 38.9527 337.901 40.409C338.787 41.8653 339.222 43.6294 339.207 45.7012H332.068C332.083 44.9656 331.971 44.305 331.731 43.7194C331.49 43.1339 331.115 42.6685 330.605 42.3232C330.109 41.9629 329.471 41.7827 328.69 41.7827C327.91 41.7827 327.279 41.9554 326.799 42.3007C326.318 42.646 325.95 43.1264 325.695 43.742C325.455 44.3425 325.29 45.0331 325.2 45.8138C325.125 46.5945 325.087 47.4277 325.087 48.3135V48.8315C325.087 49.7323 325.125 50.5806 325.2 51.3763C325.29 52.157 325.462 52.8476 325.718 53.4481C325.973 54.0336 326.341 54.4991 326.821 54.8444C327.302 55.1747 327.94 55.3398 328.735 55.3398ZM348.161 36.3779V60.7446H340.549V36.3779H348.161ZM340.099 30.0948C340.099 29.0138 340.489 28.128 341.27 27.4374C342.051 26.7468 343.064 26.4015 344.31 26.4015C345.556 26.4015 346.57 26.7468 347.35 27.4374C348.131 28.128 348.522 29.0138 348.522 30.0948C348.522 31.1757 348.131 32.0615 347.35 32.7522C346.57 33.4428 345.556 33.7881 344.31 33.7881C343.064 33.7881 342.051 33.4428 341.27 32.7522C340.489 32.0615 340.099 31.1757 340.099 30.0948ZM349.593 48.809V48.3361C349.593 46.5495 349.849 44.9055 350.359 43.4042C350.87 41.8878 351.62 40.5741 352.611 39.4631C353.602 38.3522 354.826 37.4889 356.282 36.8733C357.738 36.2428 359.42 35.9275 361.326 35.9275C363.248 35.9275 364.937 36.2428 366.393 36.8733C367.865 37.4889 369.096 38.3522 370.087 39.4631C371.078 40.5741 371.828 41.8878 372.339 43.4042C372.849 44.9055 373.104 46.5495 373.104 48.3361V48.809C373.104 50.5806 372.849 52.2245 372.339 53.7409C371.828 55.2422 371.078 56.5559 370.087 57.6819C369.096 58.7929 367.872 59.6562 366.416 60.2717C364.96 60.8873 363.278 61.195 361.371 61.195C359.465 61.195 357.776 60.8873 356.304 60.2717C354.833 59.6562 353.602 58.7929 352.611 57.6819C351.62 56.5559 350.87 55.2422 350.359 53.7409C349.849 52.2245 349.593 50.5806 349.593 48.809ZM357.183 48.3361V48.809C357.183 49.7248 357.25 50.5806 357.385 51.3763C357.521 52.172 357.746 52.8701 358.061 53.4706C358.376 54.0562 358.804 54.5141 359.345 54.8444C359.885 55.1747 360.561 55.3398 361.371 55.3398C362.167 55.3398 362.828 55.1747 363.353 54.8444C363.894 54.5141 364.322 54.0562 364.637 53.4706C364.952 52.8701 365.177 52.172 365.313 51.3763C365.448 50.5806 365.515 49.7248 365.515 48.809V48.3361C365.515 47.4503 365.448 46.617 365.313 45.8363C365.177 45.0406 364.952 44.3425 364.637 43.742C364.322 43.1264 363.894 42.646 363.353 42.3007C362.813 41.9554 362.137 41.7827 361.326 41.7827C360.531 41.7827 359.863 41.9554 359.322 42.3007C358.797 42.646 358.376 43.1264 358.061 43.742C357.746 44.3425 357.521 45.0406 357.385 45.8363C357.25 46.617 357.183 47.4503 357.183 48.3361Z" fill="white"/>
<path d="M34.4104 39.9669C34.4411 39.9392 34.1907 38.8188 34.1836 38.6806C34.1601 38.1954 34.2059 37.7077 34.3168 37.2351C34.5298 36.3323 35.0431 35.6157 35.853 35.1439C35.661 35.1607 35.5405 34.9032 35.6115 34.7243C35.682 34.5445 35.8627 34.4357 36.0362 34.3487C37.9018 33.4039 40.2816 33.3359 42.0194 34.5008C43.6834 35.6165 44.5139 37.9568 43.7023 39.7682C43.6536 39.877 43.6956 40.0081 43.8027 40.0585C44.1703 40.2257 44.3761 40.7134 44.2837 41.1251C44.1888 41.546 43.8708 41.877 43.5036 42.1131C43.5032 42.1136 43.5028 42.1136 43.5028 42.114C43.4238 42.1652 43.3347 42.1988 43.2406 42.1988H34.9944C34.915 42.1988 34.8339 42.182 34.7675 42.1388C34.7545 42.1308 34.7411 42.1228 34.7264 42.1157C34.3768 41.9459 34.1055 41.6162 34.0164 41.2377C33.9089 40.7848 34.0656 40.2795 34.4104 39.9669Z" fill="#27DEBF"/>
<path d="M47.1003 53.1323C47.1129 53.4482 46.8567 53.7091 46.5412 53.7091H31.6929C31.3703 53.7091 31.1153 53.4364 31.1338 53.1134C31.1585 52.7181 31.2031 52.3253 31.2812 51.9372C31.4812 50.9558 31.921 49.9922 32.6801 49.3394C33.6471 48.5072 34.999 48.2757 36.1244 47.7254C36.5289 47.528 36.8536 47.1831 36.9734 46.7479C37.1603 46.0707 36.7591 45.5939 36.3222 45.1436H41.9484C41.559 45.501 41.1473 45.8518 41.3074 46.5773C41.375 46.8835 41.5355 47.1646 41.7602 47.383C42.3168 47.9258 43.0814 48.1047 43.7926 48.3677C44.8012 48.7412 45.767 49.3335 46.353 50.2354C46.8416 50.9886 47.0193 51.8742 47.0814 52.7803C47.0898 52.8975 47.0953 53.0143 47.1003 53.1323Z" fill="#27DEBF"/>
<mask id="mask0_197_2133" style="mask-type:luminance" maskUnits="userSpaceOnUse" x="26" y="30" width="26" height="27">
<path d="M26.2134 30.7295H51.9427V56.4588H26.2134V30.7295Z" fill="white"/>
</mask>
<g mask="url(#mask0_197_2133)">
<path d="M28.2554 55.0717C27.8941 55.0717 27.6005 54.7781 27.6005 54.4164V49.6031H26.2134V54.4164C26.2134 55.5426 27.1292 56.4588 28.2554 56.4588H33.0692V55.0717H28.2554ZM50.5556 49.6031V54.4164C50.5556 54.7781 50.262 55.0717 49.9007 55.0717H45.0869V56.4588H49.9007C51.0274 56.4588 51.9427 55.5426 51.9427 54.4164V49.6031H50.5556ZM49.9007 30.7295H45.0869V32.1162H49.9007C50.262 32.1162 50.5556 32.4103 50.5556 32.7715V37.5853H51.9427V32.7715C51.9427 31.6449 51.0274 30.7295 49.9007 30.7295ZM28.2554 30.7295C27.1292 30.7295 26.2134 31.6449 26.2134 32.7715V37.5853H27.6005V32.7715C27.6005 32.4103 27.8941 32.1162 28.2554 32.1162H33.0692V30.7295H28.2554Z" fill="#455FB5"/>
</g>
<mask id="mask1_197_2133" style="mask-type:luminance" maskUnits="userSpaceOnUse" x="26" y="42" width="26" height="3">
<path d="M26.2134 42.7988H51.9427V44.412H26.2134V42.7988Z" fill="white"/>
</mask>
<g mask="url(#mask1_197_2133)">
<path d="M51.9427 42.8232V44.3645H26.2134V42.8232H51.9427Z" fill="#455FB5"/>
</g>
</svg>
